<svg width="40" height="40" viewBox="0 0 40 40" fill="none" xmlns="http://www.w3.org/2000/svg">
<path d="M14.2017 23.0763C12.4683 23.0763 11.0533 21.5023 11.0533 19.5743C11.0533 17.6464 12.4329 16.0721 14.2017 16.0721C15.9527 16.0721 17.3853 17.6464 17.35 19.5743C17.35 21.5023 15.9527 23.0763 14.2017 23.0763ZM25.8242 23.0763C24.0907 23.0763 22.674 21.5023 22.674 19.5743C22.674 17.6464 24.0553 16.0721 25.8242 16.0721C27.5752 16.0721 29.0078 17.6464 28.9725 19.5743C28.9725 21.5023 27.5928 23.0763 25.8242 23.0763ZM16.8762 7.20485L16.3616 6.2666L15.306 6.44252C12.8659 6.84922 10.545 7.57787 8.37639 8.57665L7.99484 8.75238L7.75911 9.10007C3.40366 15.5239 2.21032 21.8478 2.80119 28.0603L2.86561 28.7374L3.41586 29.1373C6.31484 31.2441 9.12427 32.5314 11.8794 33.3761L13.1949 33.7792L15.0509 29.2509C18.2335 30.0376 21.766 30.0379 24.949 29.2518L26.7935 33.7804L28.112 33.3759C30.8628 32.5321 33.6902 31.2453 36.5783 29.1351L37.1217 28.7383L37.1892 28.0689C37.9158 20.8688 36.0273 14.5961 32.2585 9.09412L32.022 8.74899L31.6417 8.57498C29.4618 7.578 27.1427 6.8496 24.7188 6.4428L23.6893 6.27003L23.1652 7.17273C23.0193 7.424 22.8698 7.70765 22.728 7.9947C20.9075 7.80775 19.094 7.80735 17.2883 7.99412C17.1477 7.71219 17.0048 7.43958 16.8762 7.20485ZM11.1913 27.6836C11.5212 27.8738 11.8669 28.0596 12.2099 28.2301L11.4613 30.0566C9.59374 29.3764 7.69794 28.4394 5.74666 27.0928C5.37254 21.8629 6.43552 16.5849 10.0206 11.1437C11.5167 10.4853 13.0898 9.97124 14.7274 9.6215C14.8278 9.83044 14.9212 10.0344 14.998 10.2152L15.4528 11.2872L16.605 11.1182C18.8593 10.7876 21.1293 10.7872 23.4212 11.1187L24.5713 11.285L25.0252 10.2152C25.1042 10.029 25.1952 9.8257 25.2912 9.62195C26.9215 9.97202 28.4973 10.4868 30.0055 11.1468C33.1308 15.8475 34.7075 21.0906 34.2483 27.0919C32.3068 28.4374 30.4043 29.3748 28.5328 30.0558L27.7898 28.2316C28.1338 28.0608 28.4805 27.8743 28.8115 27.6836C29.6278 27.2133 30.5072 26.6266 31.0677 26.0661L28.935 23.9336C28.6622 24.2064 28.0623 24.6346 27.3058 25.0704C26.5653 25.4971 25.8307 25.8419 25.3613 25.9971C22.0217 27.1013 17.9812 27.1013 14.6414 25.9971C14.1721 25.8419 13.4374 25.4971 12.6969 25.0704C11.9404 24.6346 11.3405 24.2064 11.0676 23.9336L8.93507 26.0661C9.49549 26.6266 10.3748 27.2133 11.1913 27.6836Z" fill="white"/>
</svg>
