<svg width="37" height="37" viewBox="0 0 37 37" fill="none" xmlns="http://www.w3.org/2000/svg">
<path d="M24.666 12.3335C27.1193 12.3335 29.472 13.308 31.2068 15.0428C32.9415 16.7775 33.916 19.1302 33.916 21.5835V32.3752H27.7493V21.5835C27.7493 20.7657 27.4245 19.9815 26.8463 19.4033C26.268 18.825 25.4838 18.5002 24.666 18.5002C23.8483 18.5002 23.064 18.825 22.4858 19.4033C21.9075 19.9815 21.5827 20.7657 21.5827 21.5835V32.3752H15.416V21.5835C15.416 19.1302 16.3906 16.7775 18.1253 15.0428C19.86 13.308 22.2128 12.3335 24.666 12.3335Z" stroke="white" stroke-width="2.5" stroke-linecap="round" stroke-linejoin="round"/>
<path d="M9.25065 13.8745H3.08398V32.3745H9.25065V13.8745Z" stroke="white" stroke-width="2.5" stroke-linecap="round" stroke-linejoin="round"/>
<path d="M6.16732 9.25016C7.8702 9.25016 9.25065 7.86971 9.25065 6.16683C9.25065 4.46395 7.8702 3.0835 6.16732 3.0835C4.46444 3.0835 3.08398 4.46395 3.08398 6.16683C3.08398 7.86971 4.46444 9.25016 6.16732 9.25016Z" stroke="white" stroke-width="2.5" stroke-linecap="round" stroke-linejoin="round"/>
</svg>
