<svg width="41" height="41" viewBox="0 0 41 41" fill="none" xmlns="http://www.w3.org/2000/svg">
<path d="M29.2026 12.2084C30.2158 11.8408 30.7188 11.7084 30.9974 11.6611C30.9995 11.7502 30.9974 11.8224 30.9928 11.8698C30.5954 16.0449 28.8546 26.3164 27.9605 31.096C27.7512 32.2153 27.5907 32.7481 26.5096 32.1132C25.7981 31.695 25.1542 31.1688 24.4644 30.7166C22.2015 29.2331 18.9624 27.0239 19.2284 27.1568C17.0006 25.6886 17.9331 24.7897 19.1768 23.5908C19.3782 23.3967 19.5876 23.1948 19.7931 22.9813C19.8849 22.8859 20.3337 22.4686 20.9664 21.8804C22.9961 19.9934 26.9183 16.347 27.0173 15.925C27.0336 15.8558 27.0486 15.5978 26.8952 15.4615C26.742 15.3252 26.5158 15.3718 26.3525 15.4089C26.121 15.4614 22.4347 17.8979 15.2936 22.7183C14.2473 23.4369 13.2995 23.7871 12.4504 23.7686L12.458 23.7724C11.3395 23.3779 10.2241 23.0383 9.10281 22.6968C8.3662 22.4723 7.62705 22.2472 6.88282 22.0053C6.70079 21.9462 6.52319 21.89 6.35629 21.8375C14.0899 18.4685 19.2408 16.2503 21.822 15.1767C25.5709 13.6174 27.7946 12.7193 29.2026 12.2084ZM33.3412 8.91409C32.9083 8.56282 32.4326 8.4016 32.102 8.32264C31.7607 8.2411 31.4363 8.21486 31.1903 8.2192C30.3764 8.23354 29.5023 8.465 28.0372 8.99661C26.5428 9.53893 24.2462 10.4679 20.5098 12.0221C17.8755 13.1177 12.6311 15.3769 4.78944 18.7933C4.10066 19.0687 3.46926 19.3811 2.97039 19.7515C2.50974 20.0937 1.86491 20.7058 1.74695 21.6469C1.65784 22.3575 1.86507 23.0135 2.28532 23.5301C2.65117 23.9798 3.11989 24.2529 3.47683 24.4258C4.00668 24.6824 4.71959 24.9059 5.34614 25.1023C6.32522 25.4091 7.30204 25.7226 8.28322 26.0229C11.3208 26.9528 13.8214 27.7181 16.5728 29.5312C18.5908 30.8611 20.5699 32.249 22.5914 33.5739C23.3287 34.0572 24.0178 34.6119 24.7791 35.059C25.6105 35.5476 26.6676 35.9931 27.9544 35.8746C29.899 35.6957 30.9106 33.9067 31.3189 31.7242C32.2108 26.9567 33.9802 16.5426 34.3941 12.1935C34.4481 11.6259 34.3849 10.9896 34.3322 10.6824C34.2781 10.3661 34.1126 9.54005 33.3412 8.91409Z" fill="white"/>
</svg>
