<svg width="40" height="40" viewBox="0 0 40 40" fill="none" xmlns="http://www.w3.org/2000/svg">
<path d="M20.3052 2.3501H20.303C15.1495 2.3858 11.1666 4.12193 8.48883 7.52598C6.10903 10.5513 4.89054 14.7738 4.84961 20.0112V20.0135C4.89054 25.2512 6.10911 29.4492 8.48883 32.4743C11.1667 35.8783 15.1703 37.6145 20.3237 37.6502H20.3257C24.906 37.6183 28.1542 36.4172 30.8302 33.7437C34.3383 30.2388 34.234 25.8412 33.0753 23.1385C32.1932 21.082 30.4508 19.4362 28.1162 18.4127C27.8145 13.4389 25.0155 10.5361 20.4153 10.5067C17.6978 10.49 15.2459 11.7061 13.7441 13.9849L16.5033 15.8777C17.3915 14.5301 18.7975 13.8801 20.3945 13.8948C22.7067 13.9096 24.2263 15.1853 24.6528 17.4233C23.366 17.222 21.983 17.1635 20.512 17.2478C16.1134 17.5012 13.2325 20.1015 13.4246 23.7072C13.6255 27.4768 17.2777 29.5308 20.7453 29.3415C24.8992 29.1138 27.3675 26.0485 27.953 22.1392C28.9148 22.7623 29.6245 23.5572 30.0265 24.4947C30.7592 26.2035 30.8057 29.0218 28.5003 31.3252C26.4723 33.3512 24.0345 34.2343 20.3145 34.2618C16.1898 34.2312 13.0943 32.9098 11.0852 30.3558C9.19889 27.9578 8.21339 24.4802 8.17646 20.0002C8.21339 15.52 9.19889 12.0423 11.0852 9.64438C13.0943 7.09038 16.1897 5.7691 20.3143 5.73821C24.4692 5.76933 27.6207 7.09711 29.7083 9.66545C30.8597 11.0821 31.581 12.7755 32.0625 14.5233L35.2953 13.6608C34.6907 11.4318 33.735 9.30601 32.271 7.50491C29.5157 4.11513 25.4687 2.38593 20.3052 2.3501ZM20.7 20.6302C22.1733 20.5452 23.5392 20.6388 24.7528 20.8907C24.5183 23.5192 23.4308 25.8008 20.5662 25.9582C18.713 26.0625 16.8378 25.2353 16.7467 23.5232C16.6788 22.2503 17.6203 20.8077 20.7 20.6302Z" fill="white"/>
</svg>
