<svg width="41" height="40" viewBox="0 0 41 40" fill="none" xmlns="http://www.w3.org/2000/svg">
<path d="M12.3912 30.8242L13.6293 31.5285C15.6977 32.7052 18.0483 33.3335 20.5013 33.3335C28.0493 33.3335 34.168 27.364 34.168 20.0002C34.168 12.6364 28.0493 6.66683 20.5013 6.66683C12.9534 6.66683 6.83464 12.6364 6.83464 20.0002C6.83464 22.394 7.47907 24.6882 8.68592 26.7065L9.40749 27.9132L8.29111 31.9158L12.3912 30.8242ZM3.42511 36.6668L5.73471 28.386C4.26182 25.9228 3.41797 23.0577 3.41797 20.0002C3.41797 10.7954 11.0664 3.3335 20.5013 3.3335C29.9361 3.3335 37.5847 10.7954 37.5847 20.0002C37.5847 29.2048 29.9361 36.6668 20.5013 36.6668C17.3684 36.6668 14.4325 35.8442 11.9082 34.408L3.42511 36.6668ZM14.3365 12.1807C14.5652 12.165 14.7947 12.1626 15.0237 12.1735C15.1162 12.1795 15.2083 12.1899 15.3005 12.2003C15.5725 12.2309 15.8717 12.3926 15.9723 12.6151C16.4819 13.7424 16.9764 14.8762 17.4557 16.0162C17.5615 16.2679 17.4977 16.594 17.2965 16.9097C17.1943 17.0715 17.0339 17.2985 16.848 17.5307C16.6548 17.7718 16.239 18.2153 16.239 18.2153C16.239 18.2153 16.0706 18.4123 16.1341 18.6575C16.1588 18.7502 16.2377 18.8852 16.3092 18.9987C16.3488 19.0615 16.3856 19.1177 16.4095 19.1565C16.8467 19.8687 17.4344 20.5907 18.1522 21.2695C18.3579 21.464 18.5574 21.6625 18.772 21.8468C19.572 22.535 20.4771 23.0973 21.4546 23.5138L21.4633 23.5177C21.6077 23.5783 21.6818 23.6115 21.8931 23.699C21.9997 23.743 22.1087 23.781 22.2206 23.8098C22.2611 23.8202 22.3026 23.826 22.3443 23.8288C22.6205 23.845 22.7803 23.6722 22.8484 23.5927C24.0844 22.1318 24.1975 22.0365 24.206 22.0372V22.0398C24.3685 21.8728 24.6239 21.8148 24.8518 21.8285C24.9558 21.8347 25.0593 21.8542 25.154 21.8963C26.0625 22.3007 27.5479 22.9313 27.5479 22.9313L28.5413 23.367C28.7077 23.4453 28.8595 23.6298 28.8669 23.8092C28.8713 23.9207 28.8836 24.1007 28.8428 24.43C28.7893 24.8612 28.6549 25.3803 28.5213 25.6523C28.4273 25.8432 28.3057 26.0125 28.1642 26.1558C27.9724 26.3502 27.8299 26.4682 27.5993 26.6358C27.4589 26.7378 27.3861 26.7858 27.3861 26.7858C27.1488 26.9318 27.015 27.0048 26.7323 27.1517C26.2926 27.3802 25.8067 27.5115 25.3091 27.5365C24.9919 27.5523 24.6755 27.5747 24.3586 27.558C24.3446 27.5572 23.3879 27.4138 23.3879 27.4138C20.9588 26.7905 18.7124 25.6228 16.8273 24.0035C16.4419 23.6725 16.0844 23.3143 15.7196 22.96C14.2008 21.4848 13.051 19.8942 12.3538 18.3895C12.0099 17.6475 11.7922 16.8528 11.7888 16.0351C11.7825 15.0236 12.1219 14.0388 12.7535 13.2366C12.878 13.0784 12.9962 12.9144 13.2001 12.7266C13.416 12.5277 13.5534 12.4209 13.7014 12.347C13.8987 12.2485 14.1155 12.1959 14.3365 12.1807Z" fill="white"/>
</svg>
