<svg width="52" height="52" viewBox="0 0 52 52" fill="none" xmlns="http://www.w3.org/2000/svg">
<path d="M5.41644 36.8319C3.90285 29.6889 3.90285 22.3081 5.41644 15.1652C5.61531 14.4398 5.99957 13.7787 6.53142 13.2468C7.06327 12.715 7.72439 12.3307 8.44977 12.1319C20.0706 10.2067 31.929 10.2067 43.5498 12.1319C44.2752 12.3307 44.9363 12.715 45.4681 13.2468C46 13.7787 46.3842 14.4398 46.5831 15.1652C48.0967 22.3081 48.0967 29.6889 46.5831 36.8319C46.3842 37.5572 46 38.2184 45.4681 38.7502C44.9363 39.2821 44.2752 39.6663 43.5498 39.8652C31.929 41.7908 20.0705 41.7908 8.44977 39.8652C7.72439 39.6663 7.06327 39.2821 6.53142 38.7502C5.99957 38.2184 5.61531 37.5572 5.41644 36.8319Z" stroke="white" stroke-width="2.5" stroke-linecap="round" stroke-linejoin="round"/>
<path d="M21.666 32.4985L32.4993 25.9985L21.666 19.4985V32.4985Z" stroke="white" stroke-width="2.5" stroke-linecap="round" stroke-linejoin="round"/>
</svg>
